<?xml version="1.0" encoding="UTF-8" standalone="no"?>
<!-- Created with Inkscape (http://www.inkscape.org/) -->

<svg
   xmlns:dc="http://purl.org/dc/elements/1.1/"
   xmlns:cc="http://creativecommons.org/ns#"
   xmlns:rdf="http://www.w3.org/1999/02/22-rdf-syntax-ns#"
   xmlns:svg="http://www.w3.org/2000/svg"
   xmlns="http://www.w3.org/2000/svg"
   xmlns:xlink="http://www.w3.org/1999/xlink"
   xmlns:sodipodi="http://sodipodi.sourceforge.net/DTD/sodipodi-0.dtd"
   xmlns:inkscape="http://www.inkscape.org/namespaces/inkscape"
   width="210mm"
   height="297mm"
   viewBox="0 0 210 297"
   version="1.1"
   id="svg8"
   inkscape:version="0.92.5 (2060ec1f9f, 2020-04-08)"
   sodipodi:docname="mdn120.svg">
  <defs
     id="defs2">
    <path
       d="M284.621,148.745c-2.22-6.294-1.482-17.03-2.589-18.511c-7.035-9.626-32.214-11.107-43.689-23.696        c1.852-6.292-2.22-11.106-6.291-15.178c-6.298-4.443-14.809-2.592-21.476-0.741c-7.404-1.48-14.44-4.443-21.843-6.294        c-16.288-1.851-32.579,9.626-32.579,9.626c-11.848,7.405-29.987,22.955-38.874,31.84c2.224,0.371,4.443-1.48,7.036-1.48        l17.029-4.443c-7.032,5.924-21.841,15.92-26.284,24.064c5.181-1.851,16.288-7.775,21.841-8.515        c-4.812,4.073-14.809,12.217-18.139,17.399c0.369,0.372,0,0.741,0,1.11c4.071-2.221,14.067-8.145,18.88-8.515        c-4.812,4.812-13.327,14.44-15.178,20.735c4.071-2.593,14.437-8.146,18.88-9.629c-1.11,2.592-3.33,4.443-4.812,6.664        c-2.22,3.333-7.036,7.404-7.036,11.479c3.702-3.334,8.146-6.295,12.589-8.514c-1.851,4.07-5.553,7.404-6.664,12.584        c2.961-2.961,8.515-4.443,12.217-5.553l-0.369,0.373c-0.373,0.368-4.443,3.329-7.404,6.662c2.588,0,0.737-0.371,4.071,0.369        h1.851c-0.741,0.373-1.851,1.11-2.961,1.482l0,0c-1.482,0.741-3.333,1.852-4.812,2.592        c7.032,8.884,15.547,16.288,25.543,21.101c12.958,6.294,27.025,8.519,41.463,6.667c0-0.741-0.368-1.482-0.736-2.592l0,0l0,0        c-0.369-1.11-0.746-1.852-0.746-2.962l0,0l0,0c4.816-8.887,2.228-24.437,14.81-30.731c8.519-4.439,9.255-6.663,18.888-4.812        c5.177,1.11,16.66,4.812,21.837,3.703c4.815-2.593,7.404-4.071,11.852-7.032c5.185,1.11,7.036,0.368,8.887-2.224        c-1.851,2.592,3.326-9.625,5.554-14.068L284.621,148.745z"
       id="SVGID_6_" />
    <path
       d="M284.621,148.745c-2.22-6.294-1.482-17.03-2.589-18.511c-7.035-9.626-32.214-11.107-43.689-23.696        c1.852-6.292-2.22-11.106-6.291-15.178c-6.298-4.443-14.809-2.592-21.476-0.741c-7.404-1.48-14.44-4.443-21.843-6.294        c-16.288-1.851-32.579,9.626-32.579,9.626c-11.848,7.405-29.987,22.955-38.874,31.84c2.224,0.371,4.443-1.48,7.036-1.48        l17.029-4.443c-7.032,5.924-21.841,15.92-26.284,24.064c5.181-1.851,16.288-7.775,21.841-8.515        c-4.812,4.073-14.809,12.217-18.139,17.399c0.369,0.372,0,0.741,0,1.11c4.071-2.221,14.067-8.145,18.88-8.515        c-4.812,4.812-13.327,14.44-15.178,20.735c4.071-2.593,14.437-8.146,18.88-9.629c-1.11,2.592-3.33,4.443-4.812,6.664        c-2.22,3.333-7.036,7.404-7.036,11.479c3.702-3.334,8.146-6.295,12.589-8.514c-1.851,4.07-5.553,7.404-6.664,12.584        c2.961-2.961,8.515-4.443,12.217-5.553l-0.369,0.373c-0.373,0.368-4.443,3.329-7.404,6.662c2.588,0,0.737-0.371,4.071,0.369        h1.851c-0.741,0.373-1.851,1.11-2.961,1.482l0,0c-1.482,0.741-3.333,1.852-4.812,2.592        c7.032,8.884,15.547,16.288,25.543,21.101c12.958,6.294,27.025,8.519,41.463,6.667c0-0.741-0.368-1.482-0.736-2.592l0,0l0,0        c-0.369-1.11-0.746-1.852-0.746-2.962l0,0l0,0c4.816-8.887,2.228-24.437,14.81-30.731c8.519-4.439,9.255-6.663,18.888-4.812        c5.177,1.11,16.66,4.812,21.837,3.703c4.815-2.593,7.404-4.071,11.852-7.032c5.185,1.11,7.036,0.368,8.887-2.224        c-1.851,2.592,3.326-9.625,5.554-14.068L284.621,148.745z"
       id="SVGID_8_" />
    <path
       d="M284.621,148.745c-2.22-6.294-1.482-17.03-2.589-18.511c-7.035-9.626-32.214-11.107-43.689-23.696        c1.852-6.292-2.22-11.106-6.291-15.178c-6.298-4.443-14.809-2.592-21.476-0.741c-7.404-1.48-14.44-4.443-21.843-6.294        c-16.288-1.851-32.579,9.626-32.579,9.626c-11.848,7.405-29.987,22.955-38.874,31.84c2.224,0.371,4.443-1.48,7.036-1.48        l17.029-4.443c-7.032,5.924-21.841,15.92-26.284,24.064c5.181-1.851,16.288-7.775,21.841-8.515        c-4.812,4.073-14.809,12.217-18.139,17.399c0.369,0.372,0,0.741,0,1.11c4.071-2.221,14.067-8.145,18.88-8.515        c-4.812,4.812-13.327,14.44-15.178,20.735c4.071-2.593,14.437-8.146,18.88-9.629c-1.11,2.592-3.33,4.443-4.812,6.664        c-2.22,3.333-7.036,7.404-7.036,11.479c3.702-3.334,8.146-6.295,12.589-8.514c-1.851,4.07-5.553,7.404-6.664,12.584        c2.961-2.961,8.515-4.443,12.217-5.553l-0.369,0.373c-0.373,0.368-4.443,3.329-7.404,6.662c2.588,0,0.737-0.371,4.071,0.369        h1.851c-0.741,0.373-1.851,1.11-2.961,1.482l0,0c-1.482,0.741-3.333,1.852-4.812,2.592        c7.032,8.884,15.547,16.288,25.543,21.101c12.958,6.294,27.025,8.519,41.463,6.667c0-0.741-0.368-1.482-0.736-2.592l0,0l0,0        c-0.369-1.11-0.746-1.852-0.746-2.962l0,0l0,0c4.816-8.887,2.228-24.437,14.81-30.731c8.519-4.439,9.255-6.663,18.888-4.812        c5.177,1.11,16.66,4.812,21.837,3.703c4.815-2.593,7.404-4.071,11.852-7.032c5.185,1.11,7.036,0.368,8.887-2.224        c-1.851,2.592,3.326-9.625,5.554-14.068L284.621,148.745z"
       id="SVGID_10_" />
    <path
       d="M284.621,148.745c-2.22-6.294-1.482-17.03-2.589-18.511c-7.035-9.626-32.214-11.107-43.689-23.696        c1.852-6.292-2.22-11.106-6.291-15.178c-6.298-4.443-14.809-2.592-21.476-0.741c-7.404-1.48-14.44-4.443-21.843-6.294        c-16.288-1.851-32.579,9.626-32.579,9.626c-11.848,7.405-29.987,22.955-38.874,31.84c2.224,0.371,4.443-1.48,7.036-1.48        l17.029-4.443c-7.032,5.924-21.841,15.92-26.284,24.064c5.181-1.851,16.288-7.775,21.841-8.515        c-4.812,4.073-14.809,12.217-18.139,17.399c0.369,0.372,0,0.741,0,1.11c4.071-2.221,14.067-8.145,18.88-8.515        c-4.812,4.812-13.327,14.44-15.178,20.735c4.071-2.593,14.437-8.146,18.88-9.629c-1.11,2.592-3.33,4.443-4.812,6.664        c-2.22,3.333-7.036,7.404-7.036,11.479c3.702-3.334,8.146-6.295,12.589-8.514c-1.851,4.07-5.553,7.404-6.664,12.584        c2.961-2.961,8.515-4.443,12.217-5.553l-0.369,0.373c-0.373,0.368-4.443,3.329-7.404,6.662c2.588,0,0.737-0.371,4.071,0.369        h1.851c-0.741,0.373-1.851,1.11-2.961,1.482l0,0c-1.482,0.741-3.333,1.852-4.812,2.592        c7.032,8.884,15.547,16.288,25.543,21.101c12.958,6.294,27.025,8.519,41.463,6.667c0-0.741-0.368-1.482-0.736-2.592l0,0l0,0        c-0.369-1.11-0.746-1.852-0.746-2.962l0,0l0,0c4.816-8.887,2.228-24.437,14.81-30.731c8.519-4.439,9.255-6.663,18.888-4.812        c5.177,1.11,16.66,4.812,21.837,3.703c4.815-2.593,7.404-4.071,11.852-7.032c5.185,1.11,7.036,0.368,8.887-2.224        c-1.851,2.592,3.326-9.625,5.554-14.068L284.621,148.745z"
       id="SVGID_12_" />
    <path
       d="M284.621,148.745c-2.22-6.294-1.482-17.03-2.589-18.511c-7.035-9.626-32.214-11.107-43.689-23.696        c1.852-6.292-2.22-11.106-6.291-15.178c-6.298-4.443-14.809-2.592-21.476-0.741c-7.404-1.48-14.44-4.443-21.843-6.294        c-16.288-1.851-32.579,9.626-32.579,9.626c-11.848,7.405-29.987,22.955-38.874,31.84c2.224,0.371,4.443-1.48,7.036-1.48        l17.029-4.443c-7.032,5.924-21.841,15.92-26.284,24.064c5.181-1.851,16.288-7.775,21.841-8.515        c-4.812,4.073-14.809,12.217-18.139,17.399c0.369,0.372,0,0.741,0,1.11c4.071-2.221,14.067-8.145,18.88-8.515        c-4.812,4.812-13.327,14.44-15.178,20.735c4.071-2.593,14.437-8.146,18.88-9.629c-1.11,2.592-3.33,4.443-4.812,6.664        c-2.22,3.333-7.036,7.404-7.036,11.479c3.702-3.334,8.146-6.295,12.589-8.514c-1.851,4.07-5.553,7.404-6.664,12.584        c2.961-2.961,8.515-4.443,12.217-5.553l-0.369,0.373c-0.373,0.368-4.443,3.329-7.404,6.662c2.588,0,0.737-0.371,4.071,0.369        h1.851c-0.741,0.373-1.851,1.11-2.961,1.482l0,0c-1.482,0.741-3.333,1.852-4.812,2.592        c7.032,8.884,15.547,16.288,25.543,21.101c12.958,6.294,27.025,8.519,41.463,6.667c0-0.741-0.368-1.482-0.736-2.592l0,0l0,0        c-0.369-1.11-0.746-1.852-0.746-2.962l0,0l0,0c4.816-8.887,2.228-24.437,14.81-30.731c8.519-4.439,9.255-6.663,18.888-4.812        c5.177,1.11,16.66,4.812,21.837,3.703c4.815-2.593,7.404-4.071,11.852-7.032c5.185,1.11,7.036,0.368,8.887-2.224        c-1.851,2.592,3.326-9.625,5.554-14.068L284.621,148.745z"
       id="SVGID_14_" />
  </defs>
  <sodipodi:namedview
     id="base"
     pagecolor="#ffffff"
     bordercolor="#666666"
     borderopacity="1.0"
     inkscape:pageopacity="0.0"
     inkscape:pageshadow="2"
     inkscape:zoom="0.35"
     inkscape:cx="400"
     inkscape:cy="560"
     inkscape:document-units="mm"
     inkscape:current-layer="layer1"
     showgrid="false"
     inkscape:window-width="1366"
     inkscape:window-height="685"
     inkscape:window-x="0"
     inkscape:window-y="28"
     inkscape:window-maximized="1" />
  <metadata
     id="metadata5">
    <rdf:RDF>
      <cc:Work
         rdf:about="">
        <dc:format>image/svg+xml</dc:format>
        <dc:type
           rdf:resource="http://purl.org/dc/dcmitype/StillImage" />
        <dc:title></dc:title>
      </cc:Work>
    </rdf:RDF>
  </metadata>
  <g
     inkscape:label="Layer 1"
     inkscape:groupmode="layer"
     id="layer1">
    <g
       id="g291"
       transform="matrix(0.50486777,0,0,0.50486777,-2.7905484,74.051693)">
	
		<linearGradient
   gradientTransform="matrix(1.98,0,0,-1.98,402.04,-684.3301)"
   y2="-365.87839"
   x2="-102.1206"
   y1="-471.71039"
   x1="-102.1206"
   gradientUnits="userSpaceOnUse"
   id="SVGID_1_">
		<stop
   id="stop182"
   style="stop-color:#2075BC"
   offset="0" />

		<stop
   id="stop184"
   style="stop-color:#29AAE1"
   offset="1" />

	</linearGradient>

	<polygon
   id="polygon187"
   points="140.604,40.269 140.604,39.898 140.236,40.269 140.236,39.898 140.236,40.269 81,63.963 81,249.447 140.236,226.861 199.839,249.447 199.839,249.447 199.839,249.447 199.839,249.447 199.839,249.447 259.074,226.861 318.686,249.447 318.686,63.963 259.074,40.269 259.074,39.898 259.074,40.269 258.706,39.898 258.706,40.269 199.839,63.594 "
   style="fill:url(#SVGID_1_)" />

	<g
   id="g217">
		
			<linearGradient
   gradientTransform="matrix(1.98,0,0,-1.98,402.04,-684.3301)"
   y2="-365.87839"
   x2="-147.0903"
   y1="-471.71039"
   x1="-147.0903"
   gradientUnits="userSpaceOnUse"
   id="SVGID_2_">
			<stop
   id="stop189"
   style="stop-color:#0A6AA8"
   offset="0" />

			<stop
   id="stop191"
   style="stop-color:#1699C8"
   offset="1" />

		</linearGradient>

		<polygon
   id="polygon194"
   points="140.604,226.861 140.604,39.898 81,63.963 81,249.447 "
   style="fill:url(#SVGID_2_)" />

		
			<linearGradient
   gradientTransform="matrix(1.98,0,0,-1.98,402.04,-684.3301)"
   y2="-365.87839"
   x2="-117.1738"
   y1="-471.71039"
   x1="-117.1738"
   gradientUnits="userSpaceOnUse"
   id="SVGID_3_">
			<stop
   id="stop196"
   style="stop-color:#2075BC"
   offset="0" />

			<stop
   id="stop198"
   style="stop-color:#29AAE1"
   offset="1" />

		</linearGradient>

		<polygon
   id="polygon201"
   points="140.236,226.861 140.236,39.898 199.839,63.963 199.839,249.447 "
   style="fill:url(#SVGID_3_)" />

		
			<linearGradient
   gradientTransform="matrix(1.98,0,0,-1.98,402.04,-684.3301)"
   y2="-365.87839"
   x2="-87.164101"
   y1="-471.71039"
   x1="-87.164101"
   gradientUnits="userSpaceOnUse"
   id="SVGID_4_">
			<stop
   id="stop203"
   style="stop-color:#0A6AA8"
   offset="0" />

			<stop
   id="stop205"
   style="stop-color:#1699C8"
   offset="1" />

		</linearGradient>

		<polygon
   id="polygon208"
   points="259.074,226.861 259.074,39.898 199.839,63.963 199.839,249.447 "
   style="fill:url(#SVGID_4_)" />

		
			<linearGradient
   gradientTransform="matrix(1.98,0,0,-1.98,402.04,-684.3301)"
   y2="-365.87839"
   x2="-57.245098"
   y1="-471.71039"
   x1="-57.245098"
   gradientUnits="userSpaceOnUse"
   id="SVGID_5_">
			<stop
   id="stop210"
   style="stop-color:#2075BC"
   offset="0" />

			<stop
   id="stop212"
   style="stop-color:#29AAE1"
   offset="1" />

		</linearGradient>

		<polygon
   id="polygon215"
   points="258.706,226.861 258.706,39.898 318.686,63.963 318.686,249.447 "
   style="fill:url(#SVGID_5_)" />

	</g>

	<g
   id="g289">
		<g
   id="g231">
			<g
   id="g229">
				<g
   id="g227">
					<defs
   id="defs220">
						<path
   d="m 284.621,148.745 c -2.22,-6.294 -1.482,-17.03 -2.589,-18.511 -7.035,-9.626 -32.214,-11.107 -43.689,-23.696 1.852,-6.292 -2.22,-11.106 -6.291,-15.178 -6.298,-4.443 -14.809,-2.592 -21.476,-0.741 -7.404,-1.48 -14.44,-4.443 -21.843,-6.294 -16.288,-1.851 -32.579,9.626 -32.579,9.626 -11.848,7.405 -29.987,22.955 -38.874,31.84 2.224,0.371 4.443,-1.48 7.036,-1.48 l 17.029,-4.443 c -7.032,5.924 -21.841,15.92 -26.284,24.064 5.181,-1.851 16.288,-7.775 21.841,-8.515 -4.812,4.073 -14.809,12.217 -18.139,17.399 0.369,0.372 0,0.741 0,1.11 4.071,-2.221 14.067,-8.145 18.88,-8.515 -4.812,4.812 -13.327,14.44 -15.178,20.735 4.071,-2.593 14.437,-8.146 18.88,-9.629 -1.11,2.592 -3.33,4.443 -4.812,6.664 -2.22,3.333 -7.036,7.404 -7.036,11.479 3.702,-3.334 8.146,-6.295 12.589,-8.514 -1.851,4.07 -5.553,7.404 -6.664,12.584 2.961,-2.961 8.515,-4.443 12.217,-5.553 l -0.369,0.373 c -0.373,0.368 -4.443,3.329 -7.404,6.662 2.588,0 0.737,-0.371 4.071,0.369 h 1.851 c -0.741,0.373 -1.851,1.11 -2.961,1.482 v 0 c -1.482,0.741 -3.333,1.852 -4.812,2.592 7.032,8.884 15.547,16.288 25.543,21.101 12.958,6.294 27.025,8.519 41.463,6.667 0,-0.741 -0.368,-1.482 -0.736,-2.592 v 0 0 c -0.369,-1.11 -0.746,-1.852 -0.746,-2.962 v 0 0 c 4.816,-8.887 2.228,-24.437 14.81,-30.731 8.519,-4.439 9.255,-6.663 18.888,-4.812 5.177,1.11 16.66,4.812 21.837,3.703 4.815,-2.593 7.404,-4.071 11.852,-7.032 5.185,1.11 7.036,0.368 8.887,-2.224 -1.851,2.592 3.326,-9.625 5.554,-14.068 z"
   id="path205"
   inkscape:connector-curvature="0" />

					</defs>

					<clipPath
   id="SVGID_7_">
						<use
   id="use222"
   overflow="visible"
   xlink:href="#SVGID_6_"
   style="overflow:visible"
   x="0"
   y="0"
   width="100%"
   height="100%" />

					</clipPath>

					<path
   id="path225"
   d="m 199.839,74.701 c 60.935,0 110.329,33.481 110.329,74.785 0,41.305 -49.395,74.783 -110.329,74.783 -60.926,0 -110.324,-33.479 -110.324,-74.783 0,-41.304 49.398,-74.785 110.324,-74.785 z"
   clip-path="url(#SVGID_7_)"
   inkscape:connector-curvature="0"
   style="fill:#ffffff" />

				</g>

			</g>

		</g>

		<g
   id="g245">
			<g
   id="g243">
				<g
   id="g241">
					<defs
   id="defs234">
						<path
   d="m 284.621,148.745 c -2.22,-6.294 -1.482,-17.03 -2.589,-18.511 -7.035,-9.626 -32.214,-11.107 -43.689,-23.696 1.852,-6.292 -2.22,-11.106 -6.291,-15.178 -6.298,-4.443 -14.809,-2.592 -21.476,-0.741 -7.404,-1.48 -14.44,-4.443 -21.843,-6.294 -16.288,-1.851 -32.579,9.626 -32.579,9.626 -11.848,7.405 -29.987,22.955 -38.874,31.84 2.224,0.371 4.443,-1.48 7.036,-1.48 l 17.029,-4.443 c -7.032,5.924 -21.841,15.92 -26.284,24.064 5.181,-1.851 16.288,-7.775 21.841,-8.515 -4.812,4.073 -14.809,12.217 -18.139,17.399 0.369,0.372 0,0.741 0,1.11 4.071,-2.221 14.067,-8.145 18.88,-8.515 -4.812,4.812 -13.327,14.44 -15.178,20.735 4.071,-2.593 14.437,-8.146 18.88,-9.629 -1.11,2.592 -3.33,4.443 -4.812,6.664 -2.22,3.333 -7.036,7.404 -7.036,11.479 3.702,-3.334 8.146,-6.295 12.589,-8.514 -1.851,4.07 -5.553,7.404 -6.664,12.584 2.961,-2.961 8.515,-4.443 12.217,-5.553 l -0.369,0.373 c -0.373,0.368 -4.443,3.329 -7.404,6.662 2.588,0 0.737,-0.371 4.071,0.369 h 1.851 c -0.741,0.373 -1.851,1.11 -2.961,1.482 v 0 c -1.482,0.741 -3.333,1.852 -4.812,2.592 7.032,8.884 15.547,16.288 25.543,21.101 12.958,6.294 27.025,8.519 41.463,6.667 0,-0.741 -0.368,-1.482 -0.736,-2.592 v 0 0 c -0.369,-1.11 -0.746,-1.852 -0.746,-2.962 v 0 0 c 4.816,-8.887 2.228,-24.437 14.81,-30.731 8.519,-4.439 9.255,-6.663 18.888,-4.812 5.177,1.11 16.66,4.812 21.837,3.703 4.815,-2.593 7.404,-4.071 11.852,-7.032 5.185,1.11 7.036,0.368 8.887,-2.224 -1.851,2.592 3.326,-9.625 5.554,-14.068 z"
   id="path214"
   inkscape:connector-curvature="0" />

					</defs>

					<clipPath
   id="SVGID_9_">
						<use
   id="use236"
   overflow="visible"
   xlink:href="#SVGID_8_"
   style="overflow:visible"
   x="0"
   y="0"
   width="100%"
   height="100%" />

					</clipPath>

					<polygon
   id="polygon239"
   points="141.346,231.674 141.346,43.601 82.482,67.296 82.482,255 "
   clip-path="url(#SVGID_9_)"
   style="fill:#f2f2f2" />

				</g>

			</g>

		</g>

		<g
   id="g259">
			<g
   id="g257">
				<g
   id="g255">
					<defs
   id="defs248">
						<path
   d="m 284.621,148.745 c -2.22,-6.294 -1.482,-17.03 -2.589,-18.511 -7.035,-9.626 -32.214,-11.107 -43.689,-23.696 1.852,-6.292 -2.22,-11.106 -6.291,-15.178 -6.298,-4.443 -14.809,-2.592 -21.476,-0.741 -7.404,-1.48 -14.44,-4.443 -21.843,-6.294 -16.288,-1.851 -32.579,9.626 -32.579,9.626 -11.848,7.405 -29.987,22.955 -38.874,31.84 2.224,0.371 4.443,-1.48 7.036,-1.48 l 17.029,-4.443 c -7.032,5.924 -21.841,15.92 -26.284,24.064 5.181,-1.851 16.288,-7.775 21.841,-8.515 -4.812,4.073 -14.809,12.217 -18.139,17.399 0.369,0.372 0,0.741 0,1.11 4.071,-2.221 14.067,-8.145 18.88,-8.515 -4.812,4.812 -13.327,14.44 -15.178,20.735 4.071,-2.593 14.437,-8.146 18.88,-9.629 -1.11,2.592 -3.33,4.443 -4.812,6.664 -2.22,3.333 -7.036,7.404 -7.036,11.479 3.702,-3.334 8.146,-6.295 12.589,-8.514 -1.851,4.07 -5.553,7.404 -6.664,12.584 2.961,-2.961 8.515,-4.443 12.217,-5.553 l -0.369,0.373 c -0.373,0.368 -4.443,3.329 -7.404,6.662 2.588,0 0.737,-0.371 4.071,0.369 h 1.851 c -0.741,0.373 -1.851,1.11 -2.961,1.482 v 0 c -1.482,0.741 -3.333,1.852 -4.812,2.592 7.032,8.884 15.547,16.288 25.543,21.101 12.958,6.294 27.025,8.519 41.463,6.667 0,-0.741 -0.368,-1.482 -0.736,-2.592 v 0 0 c -0.369,-1.11 -0.746,-1.852 -0.746,-2.962 v 0 0 c 4.816,-8.887 2.228,-24.437 14.81,-30.731 8.519,-4.439 9.255,-6.663 18.888,-4.812 5.177,1.11 16.66,4.812 21.837,3.703 4.815,-2.593 7.404,-4.071 11.852,-7.032 5.185,1.11 7.036,0.368 8.887,-2.224 -1.851,2.592 3.326,-9.625 5.554,-14.068 z"
   id="path223"
   inkscape:connector-curvature="0" />

					</defs>

					<clipPath
   id="SVGID_11_">
						<use
   id="use250"
   overflow="visible"
   xlink:href="#SVGID_10_"
   style="overflow:visible"
   x="0"
   y="0"
   width="100%"
   height="100%" />

					</clipPath>

					<polygon
   id="polygon253"
   points="140.977,231.674 140.977,43.601 200.214,67.296 200.214,255 "
   clip-path="url(#SVGID_11_)"
   style="fill:#ffffff" />

				</g>

			</g>

		</g>

		<g
   id="g273">
			<g
   id="g271">
				<g
   id="g269">
					<defs
   id="defs262">
						<path
   d="m 284.621,148.745 c -2.22,-6.294 -1.482,-17.03 -2.589,-18.511 -7.035,-9.626 -32.214,-11.107 -43.689,-23.696 1.852,-6.292 -2.22,-11.106 -6.291,-15.178 -6.298,-4.443 -14.809,-2.592 -21.476,-0.741 -7.404,-1.48 -14.44,-4.443 -21.843,-6.294 -16.288,-1.851 -32.579,9.626 -32.579,9.626 -11.848,7.405 -29.987,22.955 -38.874,31.84 2.224,0.371 4.443,-1.48 7.036,-1.48 l 17.029,-4.443 c -7.032,5.924 -21.841,15.92 -26.284,24.064 5.181,-1.851 16.288,-7.775 21.841,-8.515 -4.812,4.073 -14.809,12.217 -18.139,17.399 0.369,0.372 0,0.741 0,1.11 4.071,-2.221 14.067,-8.145 18.88,-8.515 -4.812,4.812 -13.327,14.44 -15.178,20.735 4.071,-2.593 14.437,-8.146 18.88,-9.629 -1.11,2.592 -3.33,4.443 -4.812,6.664 -2.22,3.333 -7.036,7.404 -7.036,11.479 3.702,-3.334 8.146,-6.295 12.589,-8.514 -1.851,4.07 -5.553,7.404 -6.664,12.584 2.961,-2.961 8.515,-4.443 12.217,-5.553 l -0.369,0.373 c -0.373,0.368 -4.443,3.329 -7.404,6.662 2.588,0 0.737,-0.371 4.071,0.369 h 1.851 c -0.741,0.373 -1.851,1.11 -2.961,1.482 v 0 c -1.482,0.741 -3.333,1.852 -4.812,2.592 7.032,8.884 15.547,16.288 25.543,21.101 12.958,6.294 27.025,8.519 41.463,6.667 0,-0.741 -0.368,-1.482 -0.736,-2.592 v 0 0 c -0.369,-1.11 -0.746,-1.852 -0.746,-2.962 v 0 0 c 4.816,-8.887 2.228,-24.437 14.81,-30.731 8.519,-4.439 9.255,-6.663 18.888,-4.812 5.177,1.11 16.66,4.812 21.837,3.703 4.815,-2.593 7.404,-4.071 11.852,-7.032 5.185,1.11 7.036,0.368 8.887,-2.224 -1.851,2.592 3.326,-9.625 5.554,-14.068 z"
   id="path232"
   inkscape:connector-curvature="0" />

					</defs>

					<clipPath
   id="SVGID_13_">
						<use
   id="use264"
   overflow="visible"
   xlink:href="#SVGID_12_"
   style="overflow:visible"
   x="0"
   y="0"
   width="100%"
   height="100%" />

					</clipPath>

					<polygon
   id="polygon267"
   points="258.706,231.674 258.706,43.601 200.214,67.296 200.214,255 "
   clip-path="url(#SVGID_13_)"
   style="fill:#f2f2f2" />

				</g>

			</g>

		</g>

		<g
   id="g287">
			<g
   id="g285">
				<g
   id="g283">
					<defs
   id="defs276">
						<path
   d="m 284.621,148.745 c -2.22,-6.294 -1.482,-17.03 -2.589,-18.511 -7.035,-9.626 -32.214,-11.107 -43.689,-23.696 1.852,-6.292 -2.22,-11.106 -6.291,-15.178 -6.298,-4.443 -14.809,-2.592 -21.476,-0.741 -7.404,-1.48 -14.44,-4.443 -21.843,-6.294 -16.288,-1.851 -32.579,9.626 -32.579,9.626 -11.848,7.405 -29.987,22.955 -38.874,31.84 2.224,0.371 4.443,-1.48 7.036,-1.48 l 17.029,-4.443 c -7.032,5.924 -21.841,15.92 -26.284,24.064 5.181,-1.851 16.288,-7.775 21.841,-8.515 -4.812,4.073 -14.809,12.217 -18.139,17.399 0.369,0.372 0,0.741 0,1.11 4.071,-2.221 14.067,-8.145 18.88,-8.515 -4.812,4.812 -13.327,14.44 -15.178,20.735 4.071,-2.593 14.437,-8.146 18.88,-9.629 -1.11,2.592 -3.33,4.443 -4.812,6.664 -2.22,3.333 -7.036,7.404 -7.036,11.479 3.702,-3.334 8.146,-6.295 12.589,-8.514 -1.851,4.07 -5.553,7.404 -6.664,12.584 2.961,-2.961 8.515,-4.443 12.217,-5.553 l -0.369,0.373 c -0.373,0.368 -4.443,3.329 -7.404,6.662 2.588,0 0.737,-0.371 4.071,0.369 h 1.851 c -0.741,0.373 -1.851,1.11 -2.961,1.482 v 0 c -1.482,0.741 -3.333,1.852 -4.812,2.592 7.032,8.884 15.547,16.288 25.543,21.101 12.958,6.294 27.025,8.519 41.463,6.667 0,-0.741 -0.368,-1.482 -0.736,-2.592 v 0 0 c -0.369,-1.11 -0.746,-1.852 -0.746,-2.962 v 0 0 c 4.816,-8.887 2.228,-24.437 14.81,-30.731 8.519,-4.439 9.255,-6.663 18.888,-4.812 5.177,1.11 16.66,4.812 21.837,3.703 4.815,-2.593 7.404,-4.071 11.852,-7.032 5.185,1.11 7.036,0.368 8.887,-2.224 -1.851,2.592 3.326,-9.625 5.554,-14.068 z"
   id="path241"
   inkscape:connector-curvature="0" />

					</defs>

					<clipPath
   id="SVGID_15_">
						<use
   id="use278"
   overflow="visible"
   xlink:href="#SVGID_14_"
   style="overflow:visible"
   x="0"
   y="0"
   width="100%"
   height="100%" />

					</clipPath>

					<polygon
   id="polygon281"
   points="258.706,231.674 258.706,43.601 317.941,67.296 317.941,255 "
   clip-path="url(#SVGID_15_)"
   style="fill:#ffffff" />

				</g>

			</g>

		</g>

	</g>

</g>
  </g>
</svg>
